<svg width="23" height="23" viewBox="0 0 23 23" fill="none" xmlns="http://www.w3.org/2000/svg">
<path d="M16.4288 13.9992L16.1834 14.3437L16.4825 14.6428L22.2071 20.3674C22.5976 20.7579 22.5976 21.3911 22.2071 21.7816C21.8166 22.172 21.1834 22.172 20.7929 21.7816L15.0683 16.057L14.7692 15.7579L14.4247 16.0032C13.0354 16.9927 11.3364 17.5745 9.5 17.5745C4.80558 17.5745 1 13.7689 1 9.07446C1 4.38004 4.80558 0.574463 9.5 0.574463C14.1944 0.574463 18 4.38004 18 9.07446C18 10.9108 17.4182 12.6099 16.4288 13.9992ZM9.5 2.57446C5.91015 2.57446 3 5.48461 3 9.07446C3 12.6643 5.91014 15.5745 9.5 15.5745C13.0898 15.5745 16 12.6643 16 9.07446C16 5.48461 13.0898 2.57446 9.5 2.57446Z" fill="#79BAAB" stroke="#79BAAB"/>
</svg>
