<?xml version="1.0" encoding="utf-8"?>
<!-- Generator: Adobe Illustrator 25.0.0, SVG Export Plug-In . SVG Version: 6.00 Build 0)  -->
<svg version="1.1" id="Capa_1" xmlns="http://www.w3.org/2000/svg" xmlns:xlink="http://www.w3.org/1999/xlink" x="0px" y="0px"
	 viewBox="0 0 80 80" style="enable-background:new 0 0 80 80;" xml:space="preserve">
<style type="text/css">
	.st0{fill:#E0C03C;}
	.st1{fill:#79BAAB;}
	.st2{fill:#DC4A23;}
	.st3{fill:#2A2A2A;}
</style>
<g>
	<path class="st0" d="M32.9,12.6l10.8-1.5c0,0-1.8-6.2-3.6-6.6c-1.8-0.4-6.4-2.9-7.2,1.2S32.9,12.6,32.9,12.6z"/>
	<path class="st1" d="M13.5,39.9v25.9c0,0-0.7,4.8,3.1,5.2s7.5,0.7,7.5,0.7l5.8-10.6l5.4,6.9l5.2-7.4l4.5,8.3l4.8-8.1l5.8,11h7.6
		c0,0,3.2-0.4,3.4-6.7s0-25.1,0-25.1H13.5z"/>
	<path class="st1" d="M15.5,30.1l51.8-10c0,0-3.4-11.1-12.7-9.8s-32.8,5.8-32.8,5.8S12.6,18.6,15.5,30.1z"/>
	<path class="st2" d="M24.2,71.7l5.8-10.6l5.4,6.9l4.7-5.6l5,6.5l4.5-6.3l6.1,9.1c0,0-0.2,2.9-4.8,4S31,77.1,31,77.1
		S24.7,76.2,24.2,71.7z"/>
	<g>
		<path class="st3" d="M76.6,43.8h-7.5v-4.5c0-1.3-1-2.3-2.3-2.3H13.2c-1.3,0-2.3,1-2.3,2.3v4.5H3.4c-1.3,0-2.3,1-2.3,2.3
			s1,2.3,2.3,2.3h7.5v18.1c0,3.8,3.1,7,7,7h4.9c1,3.1,3.9,5.4,7.4,5.4h19.6c3.5,0,6.4-2.3,7.4-5.4h4.9c3.8,0,7-3.1,7-7V48.4h7.5
			c1.3,0,2.3-1,2.3-2.3S77.9,43.8,76.6,43.8L76.6,43.8z M49.8,74.3H30.2c-1.7,0-3.2-1.4-3.2-3.2c0-1,1.4-3.6,3.2-6.2
			c1,1.5,2.2,3.4,2.8,4.9c0.8,1.9,3.5,1.9,4.2,0c0.6-1.5,1.8-3.4,2.8-4.9c1,1.5,2.2,3.3,2.8,4.9c0.8,1.9,3.5,1.9,4.2,0
			c0.6-1.5,1.8-3.4,2.8-4.9c1.7,2.6,3.2,5.2,3.2,6.2C53,72.9,51.5,74.3,49.8,74.3L49.8,74.3z M64.5,66.5c0,1.3-1.1,2.4-2.4,2.4h-5
			c-1.2-3.5-4.3-7.8-5.5-9.2c-0.9-1.2-2.7-1.2-3.6,0c-0.1,0.1-1.6,2.1-3.1,4.5c-1.5-2.4-3-4.4-3.1-4.5c-0.9-1.2-2.7-1.2-3.6,0
			c-0.1,0.1-1.6,2.1-3.1,4.5c-1.5-2.4-3-4.4-3.1-4.5c-0.9-1.2-2.7-1.2-3.6,0c-1.1,1.5-4.3,5.8-5.5,9.2h-5c-1.3,0-2.4-1.1-2.4-2.4
			V41.6h49L64.5,66.5z"/>
		<path class="st3" d="M15,32.6l52.8-9.3c1.2-0.2,2.1-1.4,1.9-2.7c-1.5-8.3-9.4-13.8-17.7-12.4l-6.6,1.2l-0.4-2.5
			c-0.7-3.8-4.4-6.4-8.2-5.7c-3.8,0.7-6.4,4.4-5.7,8.2l0.4,2.5L24.7,13c-8.3,1.5-13.8,9.4-12.4,17.7C12.5,32,13.7,32.8,15,32.6z
			 M37.4,5.7c1.4-0.2,2.7,0.7,2.9,2l0.4,2.5l-4.9,0.9l-0.4-2.5C35.1,7.2,36.1,5.9,37.4,5.7L37.4,5.7z M25.5,17.5
			c1.5-0.3,25.6-4.5,27.2-4.8c5.1-0.9,9.9,2,11.7,6.5l-47.8,8.4C16.8,22.8,20.4,18.4,25.5,17.5z"/>
	</g>
</g>
</svg>
