<svg width="351" height="71" viewBox="0 0 351 71" fill="none" xmlns="http://www.w3.org/2000/svg">
<path d="M28.431 12.3136L37.4693 11.091C37.4693 11.091 35.9775 5.93846 34.4858 5.67647C32.994 5.32714 29.133 3.2312 28.5188 6.63711C27.9045 10.043 28.431 12.3136 28.431 12.3136Z" fill="#E0C03C"/>
<path d="M12.1973 35.0197V56.5904C12.1973 56.5904 11.6708 60.6076 14.8298 60.9569C17.9888 61.3063 21.06 61.5682 21.06 61.5682L25.8863 52.7478L30.4493 58.5117L34.749 52.3112L38.5223 59.2103L42.5588 52.3985L47.385 61.5682H53.7908C53.7908 61.5682 56.4233 61.2189 56.5988 55.9791C56.7743 50.7392 56.5988 35.107 56.5988 35.107H12.1973V35.0197Z" fill="#79BAAB"/>
<path d="M13.8645 26.8979L57.213 18.6014C57.213 18.6014 54.405 9.34438 46.5953 10.4797C38.7855 11.615 19.2173 15.2829 19.2173 15.2829C19.2173 15.2829 11.4953 17.2915 13.8645 26.8979Z" fill="#79BAAB"/>
<path d="M21.06 61.5683L25.8862 52.7479L30.4492 58.5117L34.3102 53.8832L38.5222 59.2977L42.2955 54.0578L47.4727 61.6556C47.4727 61.6556 47.2972 64.1009 43.4362 64.9742C39.5752 65.8475 26.9392 66.1095 26.9392 66.1095C26.9392 66.1095 21.5865 65.2362 21.06 61.5683Z" fill="#DC4A23"/>
<path d="M64.935 38.2509H58.617V34.4957C58.617 33.4477 57.7395 32.5744 56.6865 32.5744H11.934C10.881 32.5744 10.0035 33.4477 10.0035 34.4957V38.2509H3.77327C2.72027 38.2509 1.84277 39.1242 1.84277 40.1722C1.84277 41.2202 2.72027 42.0935 3.77327 42.0935H10.0913V57.2017C10.0913 60.4329 12.7238 62.9655 15.8828 62.9655H20.007C20.7968 65.5855 23.2538 67.5067 26.1495 67.5067H42.5588C45.4545 67.5067 47.9115 65.5855 48.7013 62.9655H52.8255C56.0723 62.9655 58.617 60.3456 58.617 57.2017V42.0935H64.935C65.988 42.0935 66.8655 41.2202 66.8655 40.1722C66.8655 39.1242 65.988 38.2509 64.935 38.2509ZM42.5588 63.6642H26.1495C24.6578 63.6642 23.517 62.4416 23.517 61.0443C23.517 60.2583 24.7455 58.075 26.1495 55.8917C27.027 57.2017 27.9923 58.6863 28.5188 59.909C29.133 61.4809 31.4145 61.4809 32.0288 59.909C32.5553 58.599 33.5205 57.1144 34.3103 55.8917C35.1 57.1144 36.0653 58.6863 36.5918 59.909C37.206 61.4809 39.4875 61.4809 40.1018 59.909C40.6283 58.599 41.5935 57.1144 42.471 55.8917C43.875 57.9877 45.1035 60.2583 45.1035 61.0443C45.1913 62.5289 43.9628 63.6642 42.5588 63.6642ZM54.8438 57.2017C54.8438 58.337 53.9663 59.2103 52.8255 59.2103H48.6135C47.6483 56.3284 45.0158 52.7478 44.0505 51.5252C43.2608 50.5646 41.769 50.5646 40.9793 51.5252C40.8915 51.6125 39.663 53.2718 38.4345 55.2804C37.206 53.2718 35.9775 51.6125 35.8898 51.5252C35.1 50.5646 33.6083 50.5646 32.8185 51.5252C32.7308 51.6125 31.5023 53.2718 30.2738 55.2804C29.0453 53.2718 27.8168 51.6999 27.729 51.5252C26.9393 50.5646 25.4475 50.5646 24.6578 51.5252C23.6925 52.7478 21.06 56.3284 20.0948 59.2103H15.8828C14.742 59.2103 13.8645 58.337 13.8645 57.2017V36.417H54.8438V57.2017Z" fill="#2A2A2A"/>
<path d="M13.4257 28.9065L57.4762 21.1341C58.5292 20.9594 59.2312 19.9988 59.0557 18.9508C57.8272 12.139 51.246 7.51044 44.3137 8.73308L38.7855 9.69372L38.4345 7.6851C37.908 4.45386 34.8367 2.35792 31.59 2.88191C28.3432 3.40589 26.2372 6.46247 26.7637 9.69372L27.1147 11.7023L21.5865 12.663C14.6542 13.8856 10.0035 20.4354 11.232 27.3345C11.4075 28.4699 12.3727 29.1685 13.4257 28.9065ZM32.2042 6.63713C33.345 6.46247 34.398 7.16112 34.6612 8.29642L35.0122 10.305L30.888 11.0037L30.537 8.99507C30.2737 7.85977 31.0635 6.8118 32.2042 6.63713ZM22.2007 16.4182C23.4292 16.1562 43.6117 12.663 44.928 12.401C49.14 11.615 53.1765 14.0603 54.756 17.7282L14.8297 24.7146C15.0052 20.7847 17.901 17.2042 22.2007 16.4182Z" fill="#2A2A2A"/>
<path d="M101.176 58.2497C100.913 59.909 100.474 61.1316 99.9473 61.743C99.1575 62.8783 97.929 63.6642 96.3495 64.1882C94.77 64.7122 93.015 64.8869 90.909 64.8869C90.1193 64.8869 88.9785 64.8869 87.5745 64.7995C86.2583 64.7122 85.2053 64.7122 84.5033 64.7122C82.2218 64.2755 80.2913 63.4022 78.7118 61.9176C77.3955 60.695 76.518 59.123 76.0793 57.2891C75.6405 55.4551 75.3773 53.3592 75.3773 51.0013V49.08C75.3773 46.6347 75.2895 44.8881 75.2018 43.8401C75.2018 42.1808 75.2895 40.6089 75.5528 39.2989C75.6405 38.5129 75.9038 37.465 76.3425 36.417L76.6935 35.631H76.6058C77.22 34.4084 78.4485 33.4477 80.379 32.8364C82.3095 32.2251 84.5033 31.8758 86.8725 31.8758C87.048 31.8758 87.8378 31.9631 89.154 31.9631C89.4173 31.9631 89.9438 31.8758 90.7335 31.8758C91.26 31.8758 91.611 31.8758 91.7865 31.9631C95.0333 32.2251 97.4903 33.0984 99.1575 34.583C100.211 35.369 100.913 36.5917 101.264 38.1636C101.615 39.7356 101.79 41.8315 101.878 44.5388V45.2374L101.966 46.1981C100.649 46.4601 99.5963 46.5474 98.7188 46.5474C97.7535 46.5474 95.9985 46.3727 93.6293 46.1107L92.2253 45.9361C92.0498 44.7134 91.611 43.7528 90.9968 43.0541C90.3825 42.3555 89.5928 42.0062 88.6275 42.0062C88.3643 42.0062 88.0133 42.0062 87.6623 42.0935H87.75C87.1358 42.2682 86.697 42.6175 86.346 42.9668C85.995 43.3161 85.8195 43.7528 85.644 44.4514C85.4685 45.5867 85.3808 47.0714 85.3808 48.9926L85.293 51.0886C85.293 51.5252 85.2053 52.1366 85.2053 52.7479C85.2053 53.7085 85.5563 54.4072 86.1705 54.8438C86.7848 55.2805 87.5745 55.5425 88.5398 55.5425C89.3295 55.5425 90.1193 55.3678 90.8213 54.9311C90.9968 54.6692 91.26 54.2325 91.4355 53.5338C91.6988 52.8352 91.8743 52.1366 91.962 51.4379C93.1905 51.6126 94.5068 51.6126 95.823 51.5252H97.227L98.631 51.4379C99.684 51.4379 100.474 51.5252 101 51.6126H101.79C101.702 54.3198 101.439 56.5904 101.176 58.2497Z" fill="#2A2A2A"/>
<path d="M116.795 31.6138C117.059 31.6138 117.585 31.5265 118.375 31.5265C118.901 31.5265 119.252 31.5265 119.428 31.6138C120.92 31.7012 122.236 31.9631 123.552 32.4871C124.868 32.9238 125.921 33.6224 126.711 34.4084C127.94 35.3691 128.729 36.8537 129.08 38.8623C129.431 40.8709 129.607 43.2288 129.607 45.9361V47.9447C129.519 51.4379 129.256 54.4072 128.993 56.7651C128.729 59.123 128.203 60.7823 127.501 61.5683C126.711 62.7036 125.483 63.4896 123.903 64.0136C122.324 64.5376 120.569 64.7122 118.463 64.7122C117.673 64.7122 116.532 64.7122 115.128 64.6249C113.812 64.5376 112.759 64.5376 112.057 64.5376C109.863 64.1009 107.933 63.2276 106.265 61.743C104.949 60.5203 104.072 58.9484 103.633 57.0271C103.106 55.1932 102.843 53.0099 102.843 50.652L102.755 43.5782C102.668 42.4429 102.755 40.8709 103.194 38.775C103.545 36.679 103.984 35.4564 104.423 35.1944C104.861 34.0591 106.09 33.1858 108.02 32.5745C109.951 31.9631 112.145 31.6138 114.514 31.6138C114.689 31.6138 115.479 31.6138 116.795 31.6138ZM113.11 45.7614C113.11 46.4601 113.022 47.0714 113.022 47.4207L112.934 48.6433C112.934 49.6913 112.934 50.8266 112.847 52.0492C112.847 52.9226 113.198 53.7085 113.9 54.3198C114.602 54.9312 115.304 55.1932 116.181 55.1932C116.971 55.1932 117.848 55.0185 118.638 54.6692C118.901 54.5818 119.165 53.8832 119.603 52.6606L119.691 52.3112C119.954 50.2153 120.042 48.7307 120.042 47.77C120.042 46.8094 119.954 45.8488 119.779 45.1501C119.603 44.1021 119.165 43.2288 118.55 42.6175C117.936 42.0062 117.234 41.6569 116.269 41.6569C116.093 41.6569 115.742 41.6569 115.304 41.7442C114.251 42.0935 113.636 42.5302 113.461 43.1415L113.198 44.1021C113.198 44.4515 113.11 45.0628 113.11 45.7614Z" fill="#2A2A2A"/>
<path d="M144.612 31.6138C144.875 31.6138 145.402 31.5265 146.192 31.5265C146.718 31.5265 147.069 31.5265 147.245 31.6138C148.736 31.7012 150.053 31.9631 151.369 32.4871C152.685 32.9238 153.738 33.6224 154.528 34.4084C155.756 35.3691 156.546 36.8537 156.897 38.8623C157.248 40.8709 157.424 43.2288 157.424 45.9361V47.9447C157.336 51.4379 157.073 54.4072 156.809 56.7651C156.546 59.123 156.02 60.7823 155.318 61.5683C154.528 62.7036 153.299 63.4896 151.72 64.0136C150.14 64.5376 148.385 64.7122 146.279 64.7122C145.49 64.7122 144.349 64.7122 142.945 64.6249C141.629 64.5376 140.576 64.5376 139.874 64.5376C137.68 64.1009 135.749 63.2276 134.082 61.743C132.766 60.5203 131.888 58.9484 131.45 57.0271C130.923 55.1932 130.66 53.0099 130.66 50.652L130.572 43.5782C130.484 42.4429 130.572 40.8709 131.011 38.775C131.362 36.679 131.801 35.4564 132.239 35.1944C132.678 34.0591 133.907 33.1858 135.837 32.5745C137.768 31.9631 139.961 31.6138 142.331 31.6138C142.594 31.6138 143.384 31.6138 144.612 31.6138ZM140.927 45.7614C140.927 46.4601 140.839 47.0714 140.839 47.4207L140.751 48.6433C140.751 49.6913 140.751 50.8266 140.663 52.0492C140.663 52.9226 141.014 53.7085 141.716 54.3198C142.418 54.9312 143.12 55.1932 143.998 55.1932C144.788 55.1932 145.665 55.0185 146.455 54.6692C146.718 54.5818 146.981 53.8832 147.42 52.6606L147.508 52.3112C147.771 50.2153 147.859 48.7307 147.859 47.77C147.859 46.8094 147.771 45.8488 147.596 45.1501C147.42 44.1021 146.981 43.2288 146.367 42.6175C145.753 42.0062 145.051 41.6569 144.086 41.6569C143.91 41.6569 143.559 41.6569 143.12 41.7442C142.067 42.0935 141.453 42.5302 141.278 43.1415L141.014 44.1021C141.014 44.4515 141.014 45.0628 140.927 45.7614Z" fill="#2A2A2A"/>
<path d="M186.557 64.0135L182.783 64.1009C181.116 64.1882 179.8 64.1882 178.835 64.1882C176.992 64.1882 175.588 64.1009 174.71 63.8389C174.447 63.4022 173.833 62.1796 172.692 60.171L171.902 58.599C171.464 57.8131 171.2 57.3764 171.2 57.2891L169.709 54.4072V56.0664L169.796 58.075C169.796 60.5203 169.621 62.5289 169.358 63.9262C168.831 63.9262 167.427 63.8389 165.146 63.8389C163.917 63.9262 162.864 63.9262 162.074 63.9262C161.285 63.9262 160.319 63.8389 159.354 63.6642C159.179 59.385 159.091 54.4945 159.091 49.08C159.091 45.9361 159.091 41.1329 159.179 34.9324C159.266 28.5572 159.266 22.968 159.266 18.2522C160.934 18.2522 162.162 18.2522 162.776 18.1648H164.356L165.935 18.0775L168.041 18.1648L169.533 18.2522V33.4477L169.445 34.9324C169.445 35.631 169.358 36.5043 169.358 37.8143L169.27 38.6003C169.709 38.0763 170.06 37.6396 170.235 37.203C170.411 36.7663 170.586 36.417 170.762 36.2423C170.849 36.155 170.937 35.9803 171.025 35.7183C171.113 35.4564 171.2 35.2817 171.376 35.107V35.1944C172.429 33.3604 173.482 31.8758 174.447 30.8278C175.676 31.2645 176.816 31.4391 178.045 31.4391C178.747 31.4391 179.712 31.4391 181.116 31.3518H181.467C181.906 31.3518 182.608 31.2645 183.749 31.2645C184.626 31.2645 185.328 31.2645 185.767 31.3518C184.714 33.0111 183.398 34.845 181.906 36.8536C180.414 38.8623 179.449 40.0849 179.098 40.5215C179.098 40.5215 178.747 40.8709 178.308 41.4822L177.518 42.5302L175.237 45.4121C175.412 45.7614 175.676 46.1107 175.851 46.46C176.114 46.8094 176.29 47.0714 176.465 47.3334C176.904 48.1193 177.343 48.7306 177.782 49.342C181.643 54.9311 184.451 59.8217 186.557 64.0135Z" fill="#2A2A2A"/>
<path d="M196.736 41.9189L196.648 45.4121C196.56 49.1673 196.56 52.0492 196.56 53.9705C196.56 57.5511 196.648 60.6077 196.823 63.3149C196.648 63.5769 196.209 63.8389 195.507 63.9262C194.893 64.0136 194.015 64.1009 192.875 64.1009C191.558 64.1009 190.681 64.1009 190.242 64.0136C188.663 63.9263 187.259 64.0136 186.118 64.3629C186.293 61.5683 186.469 58.7737 186.469 55.9791C186.469 54.2325 186.469 51.6999 186.381 48.294C186.293 45.4994 186.293 43.0542 186.293 40.9582C186.293 37.9017 186.381 34.9324 186.644 32.1378C187.259 32.0505 187.697 32.0505 188.136 32.0505C188.487 32.0505 188.838 32.0505 189.014 32.1378C191.558 32.2251 193.577 32.3125 195.068 32.2251L196.999 32.5745C196.911 34.6704 196.823 37.8143 196.736 41.9189ZM196.736 21.7454C196.736 22.1821 196.736 22.8807 196.823 24.016L196.911 27.9459C196.736 28.2079 196.385 28.2953 195.946 28.2953C195.683 28.2953 195.244 28.2953 194.805 28.2079C194.366 28.1206 193.928 28.1206 193.577 28.1206C193.05 28.1206 192.26 28.1206 191.207 28.0333C190.769 28.0333 190.067 27.9459 189.101 27.9459C188.048 27.9459 187.171 27.9459 186.644 28.0333C186.644 27.16 186.644 26.0247 186.557 24.6274L186.469 23.6667C186.381 21.8328 186.381 20.2608 186.381 18.8635L196.736 19.0382C196.648 20.0862 196.648 20.9595 196.736 21.7454Z" fill="#2A2A2A"/>
<path d="M209.459 34.9324C209.371 34.9324 209.371 34.9324 209.459 34.9324C210.512 34.2338 211.653 33.7098 212.969 33.3604C214.285 33.0111 215.602 32.7491 216.83 32.7491C219.551 32.7491 221.657 33.4478 223.148 34.7577C224.289 35.8057 224.903 39.2116 224.903 44.9754C224.903 46.6347 224.903 49.2547 224.816 52.7479C224.728 55.7171 224.728 57.8131 224.728 59.123C224.728 60.5203 224.728 62.0923 224.816 63.8389C222.534 64.1882 220.253 64.2756 218.059 64.1882H215.163C215.075 62.9656 215.075 60.5203 215.075 57.0271V53.9705C215.075 51.9619 215.075 50.4773 214.987 49.604L214.9 49.2547V48.818C214.812 47.6827 214.724 46.7221 214.637 46.1107C214.549 45.4121 214.285 44.8008 213.847 44.2768C213.408 43.6655 212.706 43.4035 211.828 43.4035C211.126 43.4035 210.6 43.6655 209.986 44.2768C209.459 44.8881 209.196 45.7614 209.108 46.8967C209.108 47.508 209.02 48.4687 209.02 49.7786C209.02 50.8266 209.02 52.3112 209.108 54.3199C209.196 56.4158 209.196 57.9004 209.196 58.9484C209.196 60.7823 209.108 62.4416 208.933 63.9262C207.792 64.1882 206.914 64.3629 206.212 64.4502C205.51 64.5376 204.808 64.5376 203.931 64.4502C203.58 64.4502 202.966 64.3629 202.088 64.3629C201.123 64.3629 200.158 64.3629 199.28 64.4502C199.28 59.4724 199.28 55.8045 199.192 53.4465C199.105 48.1194 199.105 44.0148 199.105 41.2202C199.105 39.2116 199.105 36.3297 199.192 32.5745C200.509 32.7491 201.562 32.8365 202.264 32.8365C202.966 32.8365 203.668 32.8365 204.282 32.7491L205.335 32.6618C206.212 32.5745 206.914 32.5745 207.441 32.5745C208.406 32.5745 208.933 32.7491 209.02 33.0111C209.371 33.2731 209.371 33.9718 209.459 34.9324Z" fill="#2A2A2A"/>
<path d="M254.212 33.6224C254.3 34.1464 254.299 34.5831 254.299 35.0197C254.299 36.0677 254.212 37.727 254.212 39.8229C254.212 42.7048 254.212 44.8881 254.299 46.2854V50.0406L254.387 53.7959C254.387 56.2411 254.3 58.6864 254.212 61.3063V61.9176C254.212 62.6163 254.124 63.0529 253.948 63.4023C253.773 63.7516 253.334 64.0136 252.632 64.1009H244.735C243.769 63.8389 243.331 63.2276 243.331 62.4416V62.005C242.278 62.7036 241.137 63.2276 239.908 63.5769C238.68 63.9262 237.451 64.1882 236.311 64.1882C234.117 64.1882 232.274 63.3149 230.782 61.5683C229.291 59.8217 228.15 57.6384 227.36 54.9312C226.57 52.3112 226.219 49.7786 226.219 47.246C226.219 44.5388 226.746 42.0935 227.711 39.8229C228.676 37.6396 230.081 35.893 231.836 34.5831C233.591 33.2731 235.521 32.6618 237.627 32.5745C238.943 32.5745 240.084 32.6618 241.225 32.9238C242.365 33.0984 243.067 33.3604 243.331 33.7098C243.331 33.5351 243.331 33.2731 243.243 32.9238C243.155 32.5745 243.155 32.3125 243.331 32.1378C243.418 32.0505 243.682 32.0505 244.208 32.0505C244.998 32.0505 245.963 32.1378 247.192 32.2251C248.42 32.3125 249.21 32.3998 249.561 32.3998L253.51 32.5745H254.299C254.124 32.7491 254.124 33.0984 254.212 33.6224ZM236.925 53.0099C237.715 54.2325 238.855 54.8438 240.259 54.8438C241.137 54.8438 241.839 54.5818 242.278 54.0579C242.716 53.5339 242.98 52.9226 243.067 52.0492C243.155 51.2633 243.243 49.9533 243.243 48.294V46.7221C243.243 44.9754 243.243 43.7528 243.155 43.1415C243.067 42.5302 242.892 42.0935 242.629 41.8315C242.278 41.5695 241.751 41.4822 240.961 41.4822C239.645 41.4822 238.592 41.8315 237.715 42.5302C236.925 43.2288 236.311 44.1021 236.135 45.1501C235.872 45.9361 235.784 47.0714 235.784 48.3813C235.697 50.3026 236.135 51.7873 236.925 53.0099Z" fill="#2A2A2A"/>
<path d="M269.919 32.8364C272.113 32.7491 273.955 32.6618 275.623 32.4871L276.5 32.3998C276.764 32.3998 277.115 32.3125 277.378 32.3998C277.729 32.3998 277.904 32.3998 278.167 32.3998H279.572C279.747 34.0591 279.835 35.0197 279.835 35.2817C279.835 35.4564 279.835 36.155 279.747 37.203L279.659 37.9016L279.572 39.2989C279.572 39.5609 279.572 40.0849 279.659 40.6962H269.919C269.919 47.246 269.919 51.2633 269.831 52.7479C270.445 53.5339 271.586 54.1452 273.166 54.4945C274.745 54.8438 276.5 55.0185 278.167 55.0185L279.484 54.9312V55.4551L279.572 55.7171V55.6298C279.835 57.3764 279.923 58.9484 279.923 60.2583C279.923 61.5683 279.747 62.7909 279.396 63.8389C278.343 63.9262 277.202 63.9262 276.062 63.9262C272.288 63.9262 268.954 63.4896 266.146 62.6163C263.338 61.743 261.407 60.171 260.53 58.0751C260.179 55.8045 259.915 53.6212 259.74 51.4379C259.652 49.2547 259.564 46.7221 259.564 43.8401V40.7836C259.038 40.7836 258.511 40.8709 258.073 40.7836C257.634 40.7836 257.283 40.7836 256.932 40.7836H255.089L255.265 32.5745C256.405 32.5745 257.897 32.6618 259.652 32.6618L259.74 20.8721C260.617 20.7848 261.407 20.7848 262.109 20.7848C262.811 20.7848 263.601 20.7848 264.478 20.8721L264.917 20.9595C265.882 21.0468 266.672 21.0468 267.199 21.0468C267.988 21.0468 268.778 20.9595 269.656 20.8721V32.1378L269.919 32.8364Z" fill="#2A2A2A"/>
<path d="M291.33 41.9189L291.242 45.4121C291.155 49.1673 291.155 52.0492 291.155 53.9705C291.155 57.5511 291.242 60.6077 291.418 63.3149C291.242 63.5769 290.804 63.8389 290.102 63.9262C289.487 64.0136 288.61 64.1009 287.469 64.1009C286.153 64.1009 285.275 64.1009 284.837 64.0136C283.257 63.9263 281.853 64.0136 280.712 64.3629C280.888 61.5683 281.063 58.7737 281.063 55.9791C281.063 54.2325 281.063 51.6999 280.976 48.294C280.888 45.4994 280.888 43.0542 280.888 40.9582C280.888 37.9017 280.976 34.9324 281.239 32.1378C281.853 32.0505 282.292 32.0505 282.731 32.0505C283.082 32.0505 283.433 32.0505 283.608 32.1378C286.153 32.2251 288.171 32.3125 289.663 32.2251L291.593 32.5745C291.418 34.6704 291.418 37.8143 291.33 41.9189ZM291.242 21.7454C291.242 22.1821 291.242 22.8807 291.33 24.016L291.418 27.9459C291.242 28.2079 290.891 28.2953 290.453 28.2953C290.189 28.2953 289.751 28.2953 289.312 28.2079C288.873 28.1206 288.434 28.1206 288.083 28.1206C287.557 28.1206 286.767 28.1206 285.714 28.0333C285.275 28.0333 284.573 27.9459 283.608 27.9459C282.555 27.9459 281.678 27.9459 281.151 28.0333C281.151 27.16 281.151 26.0247 281.063 24.6274L280.976 23.6667C280.888 21.8328 280.888 20.2608 280.888 18.8635L291.242 19.0382C291.155 20.0862 291.242 20.9595 291.242 21.7454Z" fill="#2A2A2A"/>
<path d="M307.037 31.6138C307.301 31.6138 307.827 31.5265 308.617 31.5265C309.143 31.5265 309.494 31.5265 309.67 31.6138C311.162 31.7012 312.478 31.9631 313.794 32.4871C315.11 32.9238 316.163 33.6224 316.953 34.4084C318.182 35.3691 318.971 36.8537 319.322 38.8623C319.673 40.8709 319.849 43.2288 319.849 45.9361V47.9447C319.761 51.4379 319.498 54.4072 319.234 56.7651C318.971 59.123 318.445 60.7823 317.743 61.5683C316.953 62.7036 315.725 63.4896 314.145 64.0136C312.566 64.5376 310.81 64.7122 308.704 64.7122C307.915 64.7122 306.774 64.7122 305.37 64.6249C304.054 64.5376 303.001 64.5376 302.299 64.5376C300.105 64.1009 298.175 63.2276 296.507 61.743C295.191 60.5203 294.314 58.9484 293.875 57.0271C293.348 55.1932 293.085 53.0099 293.085 50.652L292.997 43.5782C292.91 42.4429 292.997 40.8709 293.436 38.775C293.787 36.679 294.226 35.4564 294.664 35.1944C295.103 34.0591 296.332 33.1858 298.262 32.5745C300.193 31.9631 302.386 31.6138 304.756 31.6138C304.931 31.6138 305.721 31.6138 307.037 31.6138ZM303.352 45.7614C303.352 46.4601 303.264 47.0714 303.264 47.4207L303.176 48.6433C303.176 49.6913 303.176 50.8266 303.089 52.0492C303.089 52.9226 303.44 53.7085 304.142 54.3198C304.844 54.9312 305.546 55.1932 306.423 55.1932C307.213 55.1932 308.09 55.0185 308.88 54.6692C309.143 54.5818 309.407 53.8832 309.845 52.6606L309.933 52.3112C310.196 50.2153 310.284 48.7307 310.284 47.77C310.284 46.8094 310.196 45.8488 310.021 45.1501C309.845 44.1021 309.407 43.2288 308.792 42.6175C308.178 42.0062 307.476 41.6569 306.511 41.6569C306.335 41.6569 305.984 41.6569 305.546 41.7442C304.493 42.0935 303.878 42.5302 303.703 43.1415L303.439 44.1021C303.439 44.4515 303.352 45.0628 303.352 45.7614Z" fill="#2A2A2A"/>
<path d="M331.871 34.9324C332.924 34.2338 334.064 33.7098 335.381 33.3604C336.697 33.0111 338.013 32.7491 339.242 32.7491C341.962 32.7491 344.068 33.4478 345.56 34.7577C346.7 35.8057 347.315 39.2116 347.315 44.9754C347.315 46.6347 347.315 49.2547 347.227 52.7479C347.139 55.7171 347.139 57.8131 347.139 59.123C347.139 60.5203 347.139 62.0923 347.227 63.8389C344.945 64.1882 342.664 64.2756 340.47 64.1882H337.574C337.487 62.9656 337.487 60.5203 337.487 57.0271V53.9705C337.487 51.9619 337.487 50.4773 337.399 49.604L337.311 49.2547V48.818C337.223 47.6827 337.136 46.7221 337.048 46.1107C336.96 45.4121 336.697 44.8008 336.258 44.2768C335.819 43.6655 335.117 43.4035 334.24 43.4035C333.538 43.4035 333.011 43.6655 332.397 44.2768C331.87 44.8881 331.607 45.7614 331.519 46.8967C331.519 47.508 331.432 48.4687 331.432 49.7786C331.432 50.8266 331.432 52.3112 331.519 54.3199C331.607 56.4158 331.607 57.9004 331.607 58.9484C331.607 60.7823 331.52 62.4416 331.344 63.9262C330.203 64.1882 329.326 64.3629 328.624 64.4502C327.922 64.5376 327.22 64.5376 326.342 64.4502C325.991 64.4502 325.377 64.3629 324.499 64.3629C323.534 64.3629 322.569 64.3629 321.692 64.4502C321.692 59.4724 321.691 55.8045 321.604 53.4465C321.516 48.1194 321.516 44.0148 321.516 41.2202C321.516 39.2116 321.516 36.3297 321.604 32.5745C322.92 32.7491 323.973 32.8365 324.675 32.8365C325.377 32.8365 326.079 32.8365 326.693 32.7491L327.746 32.6618C328.624 32.5745 329.326 32.5745 329.852 32.5745C330.818 32.5745 331.344 32.7491 331.432 33.0111C331.783 33.2731 331.783 33.9718 331.871 34.9324Z" fill="#2A2A2A"/>
</svg>
